# xmcd
#
# Track frame offsets:
# 150
# 12150
# 26317
# 42960
# 55165
# 71355
# 83614
# 99626
# 109483
# 123214
# 132796
# 145470
# 161361
# 174796
# 186427
# 200370
#
# Disc length: 2831 seconds
#
#
# Revision: 0
# Processed by: cddbd v1.5.2PL0 Copyright (c) Steve Scherf et al.
# Submitted via: FreeRIP 2.51 
#
DISCID=cd0b0d10
DTITLE=Diverse - Lieder, die vom Herzen kommen
DYEAR=2003
DGENRE=Country
TTITLE0=Maria and Margot Hellwig - Lieder die vom Herzen kommen
TTITLE1=Karl Moik - Mariandl
TTITLE2=Marianne and Michael - Der Bua passt nur in die Lederhosn nei
TTITLE3=Alpentrio Tirol - Ich steh halt auf die Volksmusik
TTITLE4=Original Naabtal Duo - Geh komm a bisserl her zu mir
TTITLE5=Pitztaler Nachtigalln - Das Echo vom Königssee
TTITLE6=Günther Behrle - Gwitter überm Wendelstein
TTITLE7=Lydia Huber - Wenn ich auf hohen Bergen steh
TTITLE8=Heino - Lieder der Berge
TTITLE9=Original Alpenoberkrainer - Alpenzauber in Tirol
TTITLE10=Felice - Fiesta Italiana
TTITLE11=Vico Torriani - La Campanella
TTITLE12=Hellberg Duo - Drei weisse Birken
TTITLE13=Günter Wewel - Kein schöner Land
TTITLE14=Vreni and Rudi - Glücklich und zufrieden
TTITLE15=Mainzer Hofsänger - So ein Tag so wunderschön wie heute
EXTD=
EXTT0=
EXTT1=
EXTT2=
EXTT3=
EXTT4=
EXTT5=
EXTT6=
EXTT7=
EXTT8=
EXTT9=
EXTT10=
EXTT11=
EXTT12=
EXTT13=
EXTT14=
EXTT15=
PLAYORDER=
